<?xml version="1.0" standalone="no"?>
<!DOCTYPE svg PUBLIC "-//W3C//DTD SVG 20010904//EN"
 "http://www.w3.org/TR/2001/REC-SVG-20010904/DTD/svg10.dtd">
<svg version="1.0" xmlns="http://www.w3.org/2000/svg"
 width="512.000000pt" height="512.000000pt" viewBox="0 0 512.000000 512.000000"
 preserveAspectRatio="xMidYMid meet">
<metadata>
Created by potrace 1.16, written by Peter Selinger 2001-2019
</metadata>
<g transform="translate(0.000000,512.000000) scale(0.100000,-0.100000)"
fill="#000000" stroke="none">
<path d="M1545 4482 c-881 -297 -1022 -350 -998 -372 4 -5 287 -98 628 -209
341 -110 639 -210 663 -222 54 -28 82 -73 82 -133 0 -86 -50 -146 -128 -154
-41 -4 -125 21 -642 186 -327 104 -606 193 -619 197 l-24 7 5 -166 c2 -92 9
-170 14 -175 5 -5 301 -106 657 -225 356 -118 661 -225 678 -236 40 -29 59
-70 59 -127 0 -84 -63 -153 -140 -153 -19 0 -298 88 -620 195 -322 107 -589
195 -594 195 -14 0 0 -91 37 -240 l33 -134 598 -203 c329 -111 609 -210 623
-218 86 -57 83 -208 -7 -259 -64 -38 -99 -29 -614 143 -264 88 -482 159 -484
156 -8 -8 87 -228 156 -364 310 -612 803 -1144 1465 -1583 108 -71 123 -78
168 -78 67 0 97 14 236 111 936 654 1486 1406 1722 2354 83 335 134 839 116
1148 -7 134 -20 170 -69 202 -14 9 -451 165 -972 346 -910 316 -949 329 -1018
328 -66 0 -139 -23 -1011 -317z"/>
</g>
</svg>
