<?xml version="1.0" standalone="no"?>
<!DOCTYPE svg PUBLIC "-//W3C//DTD SVG 20010904//EN"
 "http://www.w3.org/TR/2001/REC-SVG-20010904/DTD/svg10.dtd">
<svg version="1.0" xmlns="http://www.w3.org/2000/svg"
 width="512.000000pt" height="512.000000pt" viewBox="0 0 512.000000 512.000000"
 preserveAspectRatio="xMidYMid meet">
<metadata>
Created by potrace 1.16, written by Peter Selinger 2001-2019
</metadata>
<g transform="translate(0.000000,512.000000) scale(0.100000,-0.100000)"
fill="#000000" stroke="none">
<path d="M3915 4765 c-181 -51 -620 -174 -974 -274 -355 -99 -648 -184 -652
-188 -4 -5 8 -66 26 -138 31 -123 35 -130 57 -127 104 14 1982 428 2016 444
68 32 70 45 31 205 -20 79 -41 145 -51 155 -34 34 -105 22 -453 -77z"/>
<path d="M1627 4740 c-170 -43 -311 -81 -315 -85 -14 -14 -5 -291 13 -410 25
-167 76 -384 131 -553 48 -147 166 -398 195 -416 12 -7 106 13 331 68 l315 77
6 72 c18 205 -48 583 -159 917 -63 188 -174 413 -202 409 -4 0 -146 -36 -315
-79z"/>
<path d="M566 2838 c36 -358 211 -691 487 -930 142 -122 248 -184 464 -267
226 -89 377 -201 439 -328 25 -51 29 -69 29 -148 0 -84 -2 -94 -35 -154 -40
-74 -135 -173 -209 -216 -28 -16 -51 -33 -51 -37 0 -5 484 -8 1076 -8 l1077 0
-7 40 c-9 60 -47 137 -116 240 -125 186 -152 285 -112 417 85 278 427 509 895
603 l57 11 0 415 0 414 -2000 0 -1999 0 5 -52z"/>
<path d="M840 460 l0 -200 1830 0 1830 0 0 200 0 200 -1830 0 -1830 0 0 -200z"/>
</g>
</svg>
