<svg viewBox="0 0 399.90002 459.91666" xmlns="http://www.w3.org/2000/svg">
   <g
     transform="matrix(0.1,0,0,-0.1,-56.1,485.9167)"
     fill="#000000"
     stroke="none">
    <path
       d="m 3915,4765 c -181,-51 -620,-174 -974,-274 -355,-99 -648,-184 -652,-188 -4,-5 8,-66 26,-138 31,-123 35,-130 57,-127 104,14 1982,428 2016,444 68,32 70,45 31,205 -20,79 -41,145 -51,155 -34,34 -105,22 -453,-77 z"
       id="path22" />
    <path
       d="m 1627,4740 c -170,-43 -311,-81 -315,-85 -14,-14 -5,-291 13,-410 25,-167 76,-384 131,-553 48,-147 166,-398 195,-416 12,-7 106,13 331,68 l 315,77 6,72 c 18,205 -48,583 -159,917 -63,188 -174,413 -202,409 -4,0 -146,-36 -315,-79 z"
       id="path24" />
    <path
       d="m 566,2838 c 36,-358 211,-691 487,-930 142,-122 248,-184 464,-267 226,-89 377,-201 439,-328 25,-51 29,-69 29,-148 0,-84 -2,-94 -35,-154 -40,-74 -135,-173 -209,-216 -28,-16 -51,-33 -51,-37 0,-5 484,-8 1076,-8 h 1077 l -7,40 c -9,60 -47,137 -116,240 -125,186 -152,285 -112,417 85,278 427,509 895,603 l 57,11 v 415 414 H 2560 561 Z"
       id="path26" />
    <path
       d="M 840,460 V 260 H 2670 4500 V 460 660 H 2670 840 Z"
       id="path28" />
  </g>
</svg>
