<svg
   viewBox="0 0 398 458.89975"
   xmlns="http://www.w3.org/2000/svg"
   xmlns:svg="http://www.w3.org/2000/svg">
      <path style="fill:#000000" d="m 28,439.39705 v -19.50269 h 182.52159 182.5216 l -0.2716,19.25 -0.27159,19.25 -182.25,0.25269 L 28,458.89974 Z m 87.39547,-31.8115 C 160.10236,379.4899 149.70549,340.90794 91.5,318.91132 41.22665,299.91236 0,245.75759 0,198.71814 v -2.82378 h 199 199 v 41.30611 41.30611 l -9.09277,1.74306 c -52.12427,9.99211 -91.77711,44.64337 -86.79081,75.84353 1.23948,7.75562 3.68496,13.09531 10.9367,23.88019 6.17045,9.17678 12.21929,21.01641 13.3707,26.171 l 0.61428,2.75 -106.76905,-0.0588 c -83.01728,-0.0457 -106.34738,-0.3238 -104.87358,-1.25 z M 105.68403,152.73409 C 89.11631,126.75963 74.68489,72.620588 74.55723,35.962814 l -0.0572,-16.431545 31.4898,-7.881427 31.4898,-7.881427 1.91012,2.312972 c 13.8291,16.745673 31.73129,79.894701 33.2572,117.312973 0.82882,20.32446 3.9826,17.66241 -31.28031,26.40309 -16.42663,4.0717 -30.40887,7.59958 -31.07163,7.83973 -0.66276,0.24015 -2.73769,-1.96624 -4.61095,-4.90309 z m 69.95335,-82.541372 c -1.45517,-5.9391 -2.90846,-11.76154 -3.22955,-12.93877 -0.72097,-2.64342 -3.30582,-1.77869 50.09217,-16.757878 22.55,-6.32572 64.4,-18.108973 93,-26.185005 68.54216,-19.35485 63.35476,-19.522459 68.71847,2.220347 3.88509,15.74897 3.82116,16.281757 -2.33029,19.419993 -2.96489,1.512572 -157.25442,35.681793 -200.99661,44.513053 -2.56456,0.51776 -2.65294,0.34498 -5.25419,-10.27174 z" id="path4008" />
</svg>
