<svg xmlns="http://www.w3.org/2000/svg" width="616.89166" height="673.52094" preserveAspectRatio="xMidYMid" version="1.0" viewBox="0 0 411.16084 448.90448"><path d="M103.8 31.704c-88.1 29.7-102.2 35-99.8 37.2.4.5 28.7 9.8 62.8 20.9 34.1 11 63.9 21 66.3 22.2 5.4 2.8 8.2 7.3 8.2 13.3 0 8.6-5 14.6-12.8 15.4-4.1.4-12.5-2.1-64.2-18.6-32.7-10.4-60.6-19.3-61.9-19.7l-2.4-.7.5 16.6c.2 9.2.9 17 1.4 17.5.5.5 30.1 10.6 65.7 22.5 35.6 11.8 66.1 22.5 67.8 23.6 4 2.9 5.9 7 5.9 12.7 0 8.4-6.3 15.3-14 15.3-1.9 0-29.8-8.8-62-19.5s-58.9-19.5-59.4-19.5c-1.4 0 0 9.1 3.7 24l3.3 13.4 59.8 20.3c32.9 11.1 60.9 21 62.3 21.8 8.6 5.7 8.3 20.8-.7 25.9-6.4 3.8-9.9 2.9-61.4-14.3-26.4-8.8-48.2-15.9-48.4-15.6-.8.8 8.7 22.8 15.6 36.4 31 61.2 80.3 114.4 146.5 158.3 10.8 7.1 12.3 7.8 16.8 7.8 6.7 0 9.7-1.4 23.6-11.1 93.6-65.4 148.6-140.6 172.2-235.4 8.3-33.5 13.4-83.9 11.6-114.8-.7-13.4-2-17-6.9-20.2-1.4-.9-45.1-16.5-97.2-34.6-91-31.6-94.9-32.9-101.8-32.8-6.6 0-13.9 2.3-101.1 31.7z"/></svg>